<?xml version="1.0" encoding="utf-8"?>
<!-- Generator: Adobe Illustrator 17.0.0, SVG Export Plug-In . SVG Version: 6.00 Build 0)  -->
<!DOCTYPE svg PUBLIC "-//W3C//DTD SVG 1.1//EN" "http://www.w3.org/Graphics/SVG/1.1/DTD/svg11.dtd">
<svg version="1.1" id="Calque_1" xmlns="http://www.w3.org/2000/svg" xmlns:xlink="http://www.w3.org/1999/xlink" x="0px" y="0px"
	 width="43px" height="35.216px" viewBox="21.02 24.912 43 35.216" enable-background="new 21.02 24.912 43 35.216"
	 xml:space="preserve">
<g>
	<g>
		<polygon fill="#FFFFFF" points="26.204,55.423 39.107,42.52 26.204,29.617 29.58,26.241 42.483,39.144 55.384,26.243 
			58.834,29.616 45.86,42.52 58.834,55.424 55.384,58.797 42.483,45.896 29.58,58.799 		"/>
		<path fill="#12120D" d="M55.386,26.565l3.122,3.052L45.536,42.52l12.972,12.902l-3.122,3.052L42.483,45.572L29.58,58.475
			l-3.053-3.053L39.431,42.52L26.528,29.617l3.052-3.052l12.902,12.902L55.386,26.565 M29.58,25.917l-0.324,0.324l-3.052,3.052
			l-0.324,0.324l0.324,0.324L38.783,42.52L26.204,55.099l-0.324,0.324l0.324,0.324l3.052,3.052l0.324,0.324l0.324-0.324
			L42.482,46.22l12.579,12.579l0.32,0.32l0.324-0.317l3.122-3.052l0.332-0.325l-0.329-0.328L46.185,42.52l12.645-12.578l0.329-0.328
			l-0.332-0.325l-3.122-3.052l-0.324-0.317l-0.32,0.32L42.483,38.82L29.904,26.241L29.58,25.917L29.58,25.917z"/>
	</g>
</g>
</svg>
