<?xml version="1.0" encoding="utf-8"?>
<!-- Generator: Adobe Illustrator 17.0.0, SVG Export Plug-In . SVG Version: 6.00 Build 0)  -->
<!DOCTYPE svg PUBLIC "-//W3C//DTD SVG 1.0//EN" "http://www.w3.org/TR/2001/REC-SVG-20010904/DTD/svg10.dtd">
<svg version="1.0" id="Calque_1" xmlns="http://www.w3.org/2000/svg" xmlns:xlink="http://www.w3.org/1999/xlink" x="0px" y="0px"
	 width="85.04px" height="85.04px" viewBox="0 0 85.04 85.04" enable-background="new 0 0 85.04 85.04" xml:space="preserve">
<path opacity="0.5" fill="#D8DADA" d="M67.276,38.038c0-12.825-8.825-21.374-20.684-21.374c-11.652,0-20.753,8.549-20.753,21.374
	c0,12.618,9.101,21.167,20.753,21.167C58.451,59.205,67.276,50.655,67.276,38.038z"/>
<path opacity="0.5" fill="#FFFFFF" d="M35.177,49.295c2.856,3.089,6.968,4.88,11.615,4.88c9,0,15.699-6.489,15.699-16.065
	c0-6.592-3.072-11.695-7.851-14.303L35.177,49.295z"/>
<path d="M46.594,10.485c-15.205,0-27.413,11.185-27.413,27.559c0,6.59,2.013,12.336,5.422,16.836L11.118,68.365l4.948,4.948
	l13.488-13.488c4.671,3.548,10.582,5.558,17.039,5.558c15.133,0,27.34-11.111,27.34-27.34
	C73.934,21.669,61.726,10.485,46.594,10.485z M46.592,59.205c-11.652,0-20.753-8.55-20.753-21.167
	c0-12.825,9.101-21.374,20.753-21.374c11.859,0,20.684,8.549,20.684,21.374C67.276,50.655,58.451,59.205,46.592,59.205z"/>
</svg>
